<?xml version="1.0" encoding="UTF-8"?>
<svg version="1.1" xmlns="http://www.w3.org/2000/svg" width="512" height="512">
<path d="M0 0 C1.84653173 0.02241602 3.69313543 0.03948128 5.5397644 0.05145264 C10.37171756 0.09700759 15.19925674 0.21462525 20.02947998 0.34790039 C24.96956673 0.47124736 29.91037571 0.52558704 34.8515625 0.5859375 C44.52536415 0.71416375 54.19590713 0.91862445 63.8671875 1.171875 C63.09134885 6.2809242 60.76219509 9.05450975 57.3671875 12.796875 C56.26198528 14.04856557 55.15782709 15.30117871 54.0546875 16.5546875 C53.50941406 17.16989258 52.96414063 17.78509766 52.40234375 18.41894531 C50.32830381 20.78720339 48.34424238 23.22236215 46.3671875 25.671875 C42.93510737 29.8997998 39.42167579 34.0471539 35.8671875 38.171875 C31.54784478 43.18502273 27.31621473 48.25725015 23.14453125 53.39453125 C20.12298806 57.07946643 17.03682799 60.70755821 13.95068359 64.33837891 C11.07160907 67.73160975 8.23507258 71.1546422 5.4296875 74.609375 C1.47275332 79.47236924 -2.59717192 84.22887703 -6.68896484 88.97802734 C-10.48682751 93.39496218 -14.18961291 97.88141497 -17.86328125 102.40234375 C-22.67970189 108.27986911 -27.6277555 114.04799414 -32.54882812 119.83789062 C-38.03551764 126.29594426 -43.47058379 132.78685116 -48.8203125 139.359375 C-51.8571402 143.0528141 -54.95242205 146.69485986 -58.04907227 150.33813477 C-60.9282657 153.73141609 -63.76485487 157.15455286 -66.5703125 160.609375 C-70.52724668 165.47236924 -74.59717192 170.22887703 -78.68896484 174.97802734 C-82.48444617 179.39219266 -86.18559163 183.87520698 -89.85546875 188.39453125 C-92.87701194 192.07946643 -95.96317201 195.70755821 -99.04931641 199.33837891 C-101.92839093 202.73160975 -104.76492742 206.1546422 -107.5703125 209.609375 C-111.52724668 214.47236924 -115.59717192 219.22887703 -119.68896484 223.97802734 C-123.47662367 228.38309506 -127.17098144 232.85613161 -130.83203125 237.3671875 C-133.97971784 241.20426555 -137.19267497 244.98463523 -140.41625977 248.75805664 C-141.66329237 250.22240116 -142.89851097 251.6967835 -144.1328125 253.171875 C-145.09574219 254.19474609 -145.09574219 254.19474609 -146.078125 255.23828125 C-147.41546908 257.18312604 -147.41546908 257.18312604 -146.57421875 259.6328125 C-144.99829546 262.40882914 -143.26636978 264.4807511 -141.0703125 266.796875 C-137.86620688 270.25608457 -134.78438981 273.75464066 -131.8203125 277.421875 C-128.32848376 281.7363859 -124.75700415 285.96893028 -121.1328125 290.171875 C-116.81329785 295.18487106 -112.58183484 300.25725617 -108.41015625 305.39453125 C-105.85077278 308.51583767 -103.24691334 311.59640924 -100.6328125 314.671875 C-97.27834123 318.61837981 -93.96059421 322.58829572 -90.6953125 326.609375 C-87.24007099 330.85579882 -83.70583416 335.02483794 -80.1328125 339.171875 C-75.81352294 344.18506988 -71.58184131 349.2572482 -67.41015625 354.39453125 C-64.85077278 357.51583767 -62.24691334 360.59640924 -59.6328125 363.671875 C-56.27834123 367.61837981 -52.96059421 371.58829572 -49.6953125 375.609375 C-46.24007099 379.85579882 -42.70583416 384.02483794 -39.1328125 388.171875 C-34.81352294 393.18506988 -30.58184131 398.2572482 -26.41015625 403.39453125 C-23.85077278 406.51583767 -21.24691334 409.59640924 -18.6328125 412.671875 C-15.27834123 416.61837981 -11.96059421 420.58829572 -8.6953125 424.609375 C-5.24007099 428.85579882 -1.70583416 433.02483794 1.8671875 437.171875 C6.18647706 442.18506988 10.41815869 447.2572482 14.58984375 452.39453125 C17.14922722 455.51583767 19.75308666 458.59640924 22.3671875 461.671875 C25.72165877 465.61837981 29.03940579 469.58829572 32.3046875 473.609375 C36.25800513 478.46792457 40.32373002 483.2205159 44.41235352 487.96484375 C48.31454927 492.50230972 52.12044871 497.1065719 55.88671875 501.7578125 C57.69204794 503.95839127 59.54627909 506.10072351 61.4296875 508.234375 C63.8671875 511.171875 63.8671875 511.171875 63.8671875 513.171875 C52.97532213 513.47407394 42.08446504 513.70455816 31.18924999 513.84543324 C26.12896599 513.91307604 21.07156433 514.00468507 16.01293945 514.15258789 C11.12377812 514.2946291 6.23737409 514.37172374 1.34630775 514.40527916 C-0.51227921 514.42916451 -2.3707274 514.47581497 -4.22812843 514.54636574 C-19.5267823 515.10395408 -19.5267823 515.10395408 -24.68499756 510.32226562 C-27.55814932 507.1735991 -29.83891897 503.75707056 -32.1328125 500.171875 C-33.16143873 498.90802232 -34.21055466 497.65993328 -35.296875 496.4453125 C-40.19857667 490.6721972 -45.03926045 484.85823894 -49.8203125 478.984375 C-52.8571402 475.2909359 -55.95242205 471.64889014 -59.04907227 468.00561523 C-61.9282657 464.61233391 -64.76485487 461.18919714 -67.5703125 457.734375 C-71.02555401 453.48795118 -74.55979084 449.31891206 -78.1328125 445.171875 C-82.45448792 440.15591097 -86.68760291 435.08012392 -90.86328125 429.94140625 C-95.21787044 424.62745834 -99.68359685 419.40660734 -104.1328125 414.171875 C-110.0928952 407.15952942 -116.01040045 400.12226695 -121.8203125 392.984375 C-124.8571402 389.2909359 -127.95242205 385.64889014 -131.04907227 382.00561523 C-133.9282657 378.61233391 -136.76485487 375.18919714 -139.5703125 371.734375 C-143.02555401 367.48795118 -146.55979084 363.31891206 -150.1328125 359.171875 C-154.45210206 354.15868012 -158.68378369 349.0865018 -162.85546875 343.94921875 C-165.41485222 340.82791233 -168.01871166 337.74734076 -170.6328125 334.671875 C-173.98728377 330.72537019 -177.30503079 326.75545428 -180.5703125 322.734375 C-184.02555401 318.48795118 -187.55979084 314.31891206 -191.1328125 310.171875 C-195.45448792 305.15591097 -199.68760291 300.08012392 -203.86328125 294.94140625 C-207.75011465 290.19826532 -211.7286786 285.53294706 -215.69921875 280.85986328 C-218.1387051 277.98748443 -220.57320216 275.11088664 -223.0078125 272.234375 C-223.44786621 271.71504395 -223.88791992 271.19571289 -224.34130859 270.66064453 C-225.60691712 269.16588817 -226.86988464 267.66889696 -228.1328125 266.171875 C-228.6165332 265.6651123 -229.10025391 265.15834961 -229.59863281 264.63623047 C-233.11677024 260.83562371 -233.11677024 260.83562371 -233.1953125 257.5859375 C-231.90882345 254.6629587 -230.34929383 252.8480136 -228.1328125 250.546875 C-224.87781722 247.07111506 -221.7526008 243.56231721 -218.7578125 239.859375 C-215.46857402 235.79922125 -212.13783383 231.78132228 -208.7578125 227.796875 C-208.06800293 226.98343628 -208.06800293 226.98343628 -207.36425781 226.15356445 C-205.48289267 223.93670883 -203.59980678 221.72131792 -201.71679688 219.50585938 C-196.23010736 213.04780574 -190.79504121 206.55689884 -185.4453125 199.984375 C-182.4084848 196.2909359 -179.31320295 192.64889014 -176.21655273 189.00561523 C-173.3373593 185.61233391 -170.50077013 182.18919714 -167.6953125 178.734375 C-163.73837832 173.87138076 -159.66845308 169.11487297 -155.57666016 164.36572266 C-151.78117883 159.95155734 -148.08003337 155.46854302 -144.41015625 150.94921875 C-141.38861306 147.26428357 -138.30245299 143.63619179 -135.21630859 140.00537109 C-132.33723407 136.61214025 -129.50069758 133.1891078 -126.6953125 129.734375 C-122.73837832 124.87138076 -118.66845308 120.11487297 -114.57666016 115.36572266 C-110.78117883 110.95155734 -107.08003337 106.46854302 -103.41015625 101.94921875 C-100.38861306 98.26428357 -97.30245299 94.63619179 -94.21630859 91.00537109 C-91.33723407 87.61214025 -88.50069758 84.1891078 -85.6953125 80.734375 C-81.73837832 75.87138076 -77.66845308 71.11487297 -73.57666016 66.36572266 C-69.77879749 61.94878782 -66.07601209 57.46233503 -62.40234375 52.94140625 C-57.58592311 47.06388089 -52.6378695 41.29575586 -47.71679688 35.50585938 C-42.95992381 29.90682898 -38.21662167 24.30089959 -33.5703125 18.609375 C-32.87646454 17.78528137 -32.18261658 16.96118774 -31.46774292 16.11212158 C-29.08385397 13.22290141 -29.08385397 13.22290141 -27.18460083 10.05706787 C-19.85298297 -0.77470138 -12.3662835 -0.44304915 0 0 Z " fill="#FFFFFF" transform="translate(448.1328125,-1.171875)"/>
<path d="M0 0 C10.8744675 -0.32562013 21.7477605 -0.57374261 32.62612534 -0.72537041 C37.67878152 -0.79818157 42.72808334 -0.89676264 47.77880859 -1.05615234 C52.66153635 -1.20926067 57.54105825 -1.29217098 62.4260025 -1.3282814 C64.28104373 -1.35398042 66.13592591 -1.40417388 67.98958588 -1.48022079 C82.08279738 -2.03494156 82.08279738 -2.03494156 86.93717957 1.35131073 C90.44346737 4.59960049 93.19907566 8.28443867 95.82546234 12.26093674 C97.56598504 14.83801808 99.56060652 17.18619283 101.5625 19.5625 C102.27792969 20.44292969 102.99335937 21.32335937 103.73046875 22.23046875 C108.08505794 27.54441666 112.55078435 32.76526766 117 38 C122.9600827 45.01234558 128.87758795 52.04960805 134.6875 59.1875 C137.7243277 62.8809391 140.81960955 66.52298486 143.91625977 70.16625977 C146.7954532 73.55954109 149.63204237 76.98267786 152.4375 80.4375 C155.89274151 84.68392382 159.42697834 88.85296294 163 93 C167.31145411 98.00410065 171.5365358 103.06615654 175.69921875 108.1953125 C178.84690534 112.03239055 182.05986247 115.81276023 185.28344727 119.58618164 C186.53047987 121.05052616 187.76569847 122.5249085 189 124 C189.53352081 124.60191666 190.06704163 125.20383331 190.61672974 125.82398987 C192.36898168 128.58044179 192.42885404 130.40976851 192.51513672 133.66381836 C192.55041473 134.80278061 192.58569275 135.94174286 192.62203979 137.11521912 C192.64106354 138.34434525 192.66008728 139.57347137 192.6796875 140.83984375 C192.70153107 142.11291885 192.72337463 143.38599396 192.74588013 144.69764709 C192.78300762 147.39715041 192.8119279 150.09558968 192.83056641 152.79516602 C192.85257897 155.54236578 192.9079212 158.28558588 192.99462891 161.03149414 C193.81129052 187.43158969 193.81129052 187.43158969 186.796875 194.96484375 C184.93208916 196.76070139 183.01409467 198.36263863 181 200 C179.912119 201.21322316 178.84928262 202.4504249 177.8359375 203.7265625 C176.61777344 205.16128906 176.61777344 205.16128906 175.375 206.625 C171.2982153 211.43455913 167.29269897 216.29754127 163.3125 221.1875 C160.2756723 224.8809391 157.18039045 228.52298486 154.08374023 232.16625977 C151.2045468 235.55954109 148.36795763 238.98267786 145.5625 242.4375 C141.94418852 246.87517549 138.27220012 251.26367817 134.5625 255.625 C134.04179932 256.24173584 133.52109863 256.85847168 132.98461914 257.49389648 C129.23356482 261.88321759 129.23356482 261.88321759 127 263 C127.01024436 262.16264391 127.01024436 262.16264391 127.02069569 261.30837154 C127.18315087 247.65863674 127.27156599 234.0100989 127.28240681 220.35937405 C127.28984029 213.757391 127.32100602 207.15736078 127.40795898 200.5559082 C127.49110815 194.17499625 127.50989097 187.79673658 127.48558617 181.4153614 C127.48736685 178.99101519 127.51165488 176.5665693 127.55968666 174.14269829 C127.95903866 157.31047646 127.95903866 157.31047646 119.69604492 143.24243164 C118.02841814 141.58778681 116.32828432 140.00071619 114.56805992 138.44525337 C112.23893693 136.2985415 110.32519165 133.86337898 108.375 131.375 C105.1686082 127.41966997 101.91789533 123.50821831 98.625 119.625 C98.16480469 119.08230469 97.70460938 118.53960937 97.23046875 117.98046875 C95.82099868 116.31972826 94.41066758 114.65972338 93 113 C87.0399173 105.98765442 81.12241205 98.95039195 75.3125 91.8125 C72.2756723 88.1190609 69.18039045 84.47701514 66.08374023 80.83374023 C63.2045468 77.44045891 60.36795763 74.01732214 57.5625 70.5625 C54.10725849 66.31607618 50.57302166 62.14703706 47 58 C42.68071044 52.98680512 38.44902881 47.9146268 34.27734375 42.77734375 C31.71796028 39.65603733 29.11410084 36.57546576 26.5 33.5 C22.40902114 28.68700074 18.39369435 23.81986322 14.4140625 18.9140625 C12.55873899 16.67446486 10.68173226 14.46725152 8.7734375 12.2734375 C8.22099365 11.63720459 7.6685498 11.00097168 7.09936523 10.34545898 C6.00686357 9.09117655 4.91013152 7.84056409 3.80883789 6.59399414 C0 2.21987388 0 2.21987388 0 0 Z " fill="#FFFFFF" transform="translate(0,0)"/>
<path d="M0 0 C7.31353421 7.31353421 14.04655427 14.97898852 20.55078125 23.015625 C23.31810802 26.38761487 26.15150415 29.69662321 29 33 C33.31951465 38.01299606 37.55097766 43.08538117 41.72265625 48.22265625 C45.10649154 52.34942622 48.56880628 56.40785922 52.03125 60.46875 C52.47816256 61.01567505 52.92507511 61.5626001 53.38553047 62.12609863 C55.04396976 64.103623 55.04396976 64.103623 57.21772575 66.1776123 C64.68741833 74.04814482 65.29645729 80.9790196 65.16455078 91.3125 C65.17676999 92.93175426 65.19280802 94.55098347 65.21234131 96.17016602 C65.25312525 100.53851491 65.23757031 104.90493591 65.20892954 109.27331543 C65.18601395 113.86194749 65.2073111 118.45042338 65.22140503 123.0390625 C65.23774186 130.74248651 65.21629958 138.44513193 65.17333984 146.1484375 C65.12436423 155.03261717 65.14023252 163.91493761 65.18977749 172.79907227 C65.23072689 180.45051901 65.23633099 188.10140868 65.21282947 195.75292969 C65.19885613 200.31248412 65.19676405 204.87116694 65.22665787 209.43066406 C65.25281681 213.71945445 65.23434504 218.00586744 65.18260956 222.29440308 C65.17079237 223.86038276 65.17398493 225.42656545 65.19397354 226.99246216 C65.30503451 236.58310872 64.01663454 242.65864277 57.2108593 249.82925415 C56.48127573 250.54560028 55.75169216 251.26194641 55 252 C54.01938854 253.14137533 53.05067888 254.29324123 52.1015625 255.4609375 C51.28429688 256.42257812 50.46703125 257.38421875 49.625 258.375 C49.1707666 258.91044434 48.7165332 259.44588867 48.24853516 259.99755859 C46.36177483 262.22158787 44.47279727 264.44372956 42.58398438 266.66601562 C37.09729486 273.12406926 31.66222871 279.61497616 26.3125 286.1875 C23.28163204 289.87369077 20.19330506 293.50935424 17.10131836 297.14428711 C13.32257309 301.59507547 9.63258132 306.11090359 5.97265625 310.66015625 C4.10123409 312.87992234 2.05299566 314.94700434 0 317 C0 212.39 0 107.78 0 0 Z " fill="#FFFFFF" transform="translate(0,99)"/>
<path d="M0 0 C3.85122444 3.07768791 7.06465081 6.04305564 10.125 9.9375 C13.66770007 14.36885716 17.29130599 18.70671027 21 23 C28.58260703 31.80506744 35.92229446 40.78305227 43 50 C40.5990932 54.36083072 37.64022797 57.90797948 34.375 61.625 C33.28806616 62.8767397 32.20213693 64.12935241 31.1171875 65.3828125 C30.58448242 65.99801758 30.05177734 66.61322266 29.50292969 67.24707031 C27.45931309 69.63062573 25.47625854 72.06044276 23.5 74.5 C20.06791987 78.7279248 16.55448829 82.8752789 13 87 C8.68065728 92.01314773 4.44902723 97.08537515 0.27734375 102.22265625 C-2.74419944 105.90759143 -5.83035951 109.53568321 -8.91650391 113.16650391 C-11.79557843 116.55973475 -14.63211492 119.9827672 -17.4375 123.4375 C-21.39443418 128.30049424 -25.46435942 133.05700203 -29.55615234 137.80615234 C-33.35163367 142.22031766 -37.05277913 146.70333198 -40.72265625 151.22265625 C-43.74419944 154.90759143 -46.83035951 158.53568321 -49.91650391 162.16650391 C-52.79557843 165.55973475 -55.63211492 168.9827672 -58.4375 172.4375 C-61.89274592 176.68392924 -65.42709945 180.85285321 -69 185 C-77.93718596 195.16389766 -77.93718596 195.16389766 -86 206 C-88.78136975 206.28624875 -91.33918793 206.37823168 -94.12158203 206.34057617 C-94.96068115 206.34101425 -95.79978027 206.34145233 -96.66430664 206.34190369 C-99.44570965 206.3398089 -102.22651443 206.31644563 -105.0078125 206.29296875 C-106.93309195 206.28737524 -108.85837565 206.28310399 -110.78366089 206.28010559 C-115.85711403 206.26863749 -120.93031054 206.23915346 -126.00366211 206.20599365 C-131.17818733 206.17533505 -136.35275393 206.16160927 -141.52734375 206.14648438 C-151.68500875 206.11428561 -161.84248305 206.06306559 -172 206 C-171.06000595 204.73635358 -170.11855721 203.4737892 -169.17651367 202.21166992 C-168.65240402 201.50846115 -168.12829437 200.80525238 -167.58830261 200.08073425 C-165.27860763 197.05494972 -162.81201575 194.18175417 -160.3125 191.3125 C-159.26008111 190.09403975 -158.2080056 188.87528284 -157.15625 187.65625 C-156.6303125 187.0478125 -156.104375 186.439375 -155.5625 185.8125 C-149.03294755 178.23821915 -142.62528773 170.56821064 -136.3125 162.8125 C-133.2756723 159.1190609 -130.18039045 155.47701514 -127.08374023 151.83374023 C-124.2045468 148.44045891 -121.36795763 145.01732214 -118.5625 141.5625 C-114.60556582 136.69950576 -110.53564058 131.94299797 -106.44384766 127.19384766 C-102.64836633 122.77968234 -98.94722087 118.29666802 -95.27734375 113.77734375 C-92.25580056 110.09240857 -89.16964049 106.46431679 -86.08349609 102.83349609 C-83.20442157 99.44026525 -80.36788508 96.0172328 -77.5625 92.5625 C-73.60556582 87.69950576 -69.53564058 82.94299797 -65.44384766 78.19384766 C-61.64836633 73.77968234 -57.94722087 69.29666802 -54.27734375 64.77734375 C-51.25580056 61.09240857 -48.16964049 57.46431679 -45.08349609 53.83349609 C-42.20442157 50.44026525 -39.36788508 47.0172328 -36.5625 43.5625 C-32.60556582 38.69950576 -28.53564058 33.94299797 -24.44384766 29.19384766 C-20.66043878 24.79372266 -16.9704339 20.32548844 -13.3125 15.8203125 C-8.94234795 10.49049868 -4.46543508 5.2500162 0 0 Z " fill="#FFFFFF" transform="translate(173,306)"/>
</svg>
